<?xml version="1.0" encoding="UTF-8" standalone="no"?>
<!DOCTYPE svg PUBLIC "-//W3C//DTD SVG 1.1//EN"
 "http://www.w3.org/Graphics/SVG/1.1/DTD/svg11.dtd">
<!-- Generated by graphviz version 2.47.0 (20210316.0004)
 -->
<!-- Title: dependencies Pages: 1 -->
<svg width="504pt" height="211pt"
 viewBox="0.00 0.00 504.00 211.00" xmlns="http://www.w3.org/2000/svg" xmlns:xlink="http://www.w3.org/1999/xlink">
<g id="graph0" class="graph" transform="scale(1 1) rotate(0) translate(4 207)">
<title>dependencies</title>
<polygon fill="white" stroke="transparent" points="-4,4 -4,-207 500,-207 500,4 -4,4"/>
<text text-anchor="start" x="227.01" y="-42.4" font-family="Times-12" font-weight="bold" font-size="14.00">Legend</text>
<polygon fill="#ffffb3" stroke="transparent" points="14,-10 14,-30 34,-30 34,-10 14,-10"/>
<text text-anchor="start" x="37.63" y="-15.4" font-family="Times-12" font-size="14.00"> &#160;Declarations</text>
<polygon fill="#8dd3c7" stroke="transparent" points="127,-10 127,-30 147,-30 147,-10 127,-10"/>
<text text-anchor="start" x="150.73" y="-15.4" font-family="Times-12" font-size="14.00"> &#160;Module</text>
<polygon fill="#80b1d3" stroke="transparent" points="213,-10 213,-30 233,-30 233,-10 213,-10"/>
<text text-anchor="start" x="236.78" y="-15.4" font-family="Times-12" font-size="14.00"> &#160;Bootstrap</text>
<polygon fill="#fdb462" stroke="transparent" points="310,-10 310,-30 330,-30 330,-10 310,-10"/>
<text text-anchor="start" x="333.67" y="-15.4" font-family="Times-12" font-size="14.00"> &#160;Providers</text>
<polygon fill="#fb8072" stroke="transparent" points="406,-10 406,-30 426,-30 426,-10 406,-10"/>
<text text-anchor="start" x="429.73" y="-15.4" font-family="Times-12" font-size="14.00"> &#160;Exports</text>
<g id="clust1" class="cluster">
<title>cluster_RentalSalesModule</title>
<polygon fill="none" stroke="black" stroke-dasharray="1,5" points="88,-70 88,-195 408,-195 408,-70 88,-70"/>
</g>
<g id="clust6" class="cluster">
<title>cluster_RentalSalesModule_providers</title>
<polygon fill="none" stroke="black" points="212,-78 212,-130 400,-130 400,-78 212,-78"/>
</g>
<g id="clust3" class="cluster">
<title>cluster_RentalSalesModule_imports</title>
<polygon fill="none" stroke="black" points="96,-78 96,-130 204,-130 204,-78 96,-78"/>
</g>
<!-- CardsModule -->
<g id="node1" class="node">
<title>CardsModule</title>
<polygon fill="#8dd3c7" stroke="black" points="196.21,-122 193.21,-126 172.21,-126 169.21,-122 103.79,-122 103.79,-86 196.21,-86 196.21,-122"/>
<text text-anchor="middle" x="150" y="-99.8" font-family="Times,serif" font-size="14.00">CardsModule</text>
</g>
<!-- RentalSalesModule -->
<g id="node2" class="node">
<title>RentalSalesModule</title>
<polygon fill="#8dd3c7" stroke="black" points="294.64,-187 291.64,-191 270.64,-191 267.64,-187 169.36,-187 169.36,-151 294.64,-151 294.64,-187"/>
<text text-anchor="middle" x="232" y="-164.8" font-family="Times,serif" font-size="14.00">RentalSalesModule</text>
</g>
<!-- CardsModule&#45;&gt;RentalSalesModule -->
<g id="edge1" class="edge">
<title>CardsModule&#45;&gt;RentalSalesModule</title>
<path fill="none" stroke="black" d="M182.64,-122.11C182.64,-122.11 182.64,-140.99 182.64,-140.99"/>
<polygon fill="black" stroke="black" points="179.14,-140.99 182.64,-150.99 186.14,-140.99 179.14,-140.99"/>
</g>
<!-- RentalSalesService -->
<g id="node3" class="node">
<title>RentalSalesService</title>
<ellipse fill="#fdb462" stroke="black" cx="306" cy="-104" rx="85.66" ry="18"/>
<text text-anchor="middle" x="306" y="-99.8" font-family="Times,serif" font-size="14.00">RentalSalesService</text>
</g>
<!-- RentalSalesService&#45;&gt;RentalSalesModule -->
<g id="edge2" class="edge">
<title>RentalSalesService&#45;&gt;RentalSalesModule</title>
<path fill="none" stroke="black" d="M257.62,-119.08C257.62,-119.08 257.62,-140.76 257.62,-140.76"/>
<polygon fill="black" stroke="black" points="254.12,-140.76 257.62,-150.76 261.12,-140.76 254.12,-140.76"/>
</g>
</g>
</svg>
