<?xml version="1.0" encoding="UTF-8" standalone="no"?>
<!DOCTYPE svg PUBLIC "-//W3C//DTD SVG 1.1//EN"
 "http://www.w3.org/Graphics/SVG/1.1/DTD/svg11.dtd">
<!-- Generated by graphviz version 2.47.0 (20210316.0004)
 -->
<!-- Title: dependencies Pages: 1 -->
<svg width="1438pt" height="211pt"
 viewBox="0.00 0.00 1438.00 211.00" xmlns="http://www.w3.org/2000/svg" xmlns:xlink="http://www.w3.org/1999/xlink">
<g id="graph0" class="graph" transform="scale(1 1) rotate(0) translate(4 207)">
<title>dependencies</title>
<polygon fill="white" stroke="transparent" points="-4,4 -4,-207 1434,-207 1434,4 -4,4"/>
<text text-anchor="start" x="694.01" y="-42.4" font-family="Times-12" font-weight="bold" font-size="14.00">Legend</text>
<polygon fill="#ffffb3" stroke="transparent" points="481,-10 481,-30 501,-30 501,-10 481,-10"/>
<text text-anchor="start" x="504.63" y="-15.4" font-family="Times-12" font-size="14.00"> &#160;Declarations</text>
<polygon fill="#8dd3c7" stroke="transparent" points="594,-10 594,-30 614,-30 614,-10 594,-10"/>
<text text-anchor="start" x="617.73" y="-15.4" font-family="Times-12" font-size="14.00"> &#160;Module</text>
<polygon fill="#80b1d3" stroke="transparent" points="680,-10 680,-30 700,-30 700,-10 680,-10"/>
<text text-anchor="start" x="703.78" y="-15.4" font-family="Times-12" font-size="14.00"> &#160;Bootstrap</text>
<polygon fill="#fdb462" stroke="transparent" points="777,-10 777,-30 797,-30 797,-10 777,-10"/>
<text text-anchor="start" x="800.67" y="-15.4" font-family="Times-12" font-size="14.00"> &#160;Providers</text>
<polygon fill="#fb8072" stroke="transparent" points="873,-10 873,-30 893,-30 893,-10 873,-10"/>
<text text-anchor="start" x="896.73" y="-15.4" font-family="Times-12" font-size="14.00"> &#160;Exports</text>
<g id="clust1" class="cluster">
<title>cluster_AppModule</title>
<polygon fill="none" stroke="black" stroke-dasharray="1,5" points="8,-70 8,-195 1422,-195 1422,-70 8,-70"/>
</g>
<g id="clust3" class="cluster">
<title>cluster_AppModule_imports</title>
<polygon fill="none" stroke="black" points="154,-78 154,-130 1414,-130 1414,-78 154,-78"/>
</g>
<g id="clust6" class="cluster">
<title>cluster_AppModule_providers</title>
<polygon fill="none" stroke="black" points="16,-78 16,-130 146,-130 146,-78 16,-78"/>
</g>
<!-- AuthModule -->
<g id="node1" class="node">
<title>AuthModule</title>
<polygon fill="#8dd3c7" stroke="black" points="1405.55,-122 1402.55,-126 1381.55,-126 1378.55,-122 1318.45,-122 1318.45,-86 1405.55,-86 1405.55,-122"/>
<text text-anchor="middle" x="1362" y="-99.8" font-family="Times,serif" font-size="14.00">AuthModule</text>
</g>
<!-- AppModule -->
<g id="node11" class="node">
<title>AppModule</title>
<polygon fill="#8dd3c7" stroke="black" points="784.66,-187 781.66,-191 760.66,-191 757.66,-187 701.34,-187 701.34,-151 784.66,-151 784.66,-187"/>
<text text-anchor="middle" x="743" y="-164.8" font-family="Times,serif" font-size="14.00">AppModule</text>
</g>
<!-- AuthModule&#45;&gt;AppModule -->
<g id="edge1" class="edge">
<title>AuthModule&#45;&gt;AppModule</title>
<path fill="none" stroke="black" d="M1362,-122.09C1362,-145.13 1362,-182 1362,-182 1362,-182 795.06,-182 795.06,-182"/>
<polygon fill="black" stroke="black" points="795.06,-178.5 785.06,-182 795.06,-185.5 795.06,-178.5"/>
</g>
<!-- BranchesModule -->
<g id="node2" class="node">
<title>BranchesModule</title>
<polygon fill="#8dd3c7" stroke="black" points="1299.64,-122 1296.64,-126 1275.64,-126 1272.64,-122 1188.36,-122 1188.36,-86 1299.64,-86 1299.64,-122"/>
<text text-anchor="middle" x="1244" y="-99.8" font-family="Times,serif" font-size="14.00">BranchesModule</text>
</g>
<!-- BranchesModule&#45;&gt;AppModule -->
<g id="edge2" class="edge">
<title>BranchesModule&#45;&gt;AppModule</title>
<path fill="none" stroke="black" d="M1244,-122.28C1244,-143.32 1244,-175 1244,-175 1244,-175 794.85,-175 794.85,-175"/>
<polygon fill="black" stroke="black" points="794.85,-171.5 784.85,-175 794.85,-178.5 794.85,-171.5"/>
</g>
<!-- CardsModule -->
<g id="node3" class="node">
<title>CardsModule</title>
<polygon fill="#8dd3c7" stroke="black" points="1170.21,-122 1167.21,-126 1146.21,-126 1143.21,-122 1077.79,-122 1077.79,-86 1170.21,-86 1170.21,-122"/>
<text text-anchor="middle" x="1124" y="-99.8" font-family="Times,serif" font-size="14.00">CardsModule</text>
</g>
<!-- CardsModule&#45;&gt;AppModule -->
<g id="edge3" class="edge">
<title>CardsModule&#45;&gt;AppModule</title>
<path fill="none" stroke="black" d="M1124,-122.11C1124,-141.34 1124,-169 1124,-169 1124,-169 794.86,-169 794.86,-169"/>
<polygon fill="black" stroke="black" points="794.86,-165.5 784.86,-169 794.86,-172.5 794.86,-165.5"/>
</g>
<!-- CategoriesModule -->
<g id="node4" class="node">
<title>CategoriesModule</title>
<polygon fill="#8dd3c7" stroke="black" points="1059.92,-122 1056.92,-126 1035.92,-126 1032.92,-122 940.08,-122 940.08,-86 1059.92,-86 1059.92,-122"/>
<text text-anchor="middle" x="1000" y="-99.8" font-family="Times,serif" font-size="14.00">CategoriesModule</text>
</g>
<!-- CategoriesModule&#45;&gt;AppModule -->
<g id="edge4" class="edge">
<title>CategoriesModule&#45;&gt;AppModule</title>
<path fill="none" stroke="black" d="M1000,-122.02C1000,-139.37 1000,-163 1000,-163 1000,-163 794.86,-163 794.86,-163"/>
<polygon fill="black" stroke="black" points="794.86,-159.5 784.86,-163 794.86,-166.5 794.86,-159.5"/>
</g>
<!-- ClientsModule -->
<g id="node5" class="node">
<title>ClientsModule</title>
<polygon fill="#8dd3c7" stroke="black" points="922.72,-122 919.72,-126 898.72,-126 895.72,-122 823.28,-122 823.28,-86 922.72,-86 922.72,-122"/>
<text text-anchor="middle" x="873" y="-99.8" font-family="Times,serif" font-size="14.00">ClientsModule</text>
</g>
<!-- ClientsModule&#45;&gt;AppModule -->
<g id="edge5" class="edge">
<title>ClientsModule&#45;&gt;AppModule</title>
<path fill="none" stroke="black" d="M873,-122.24C873,-137.57 873,-157 873,-157 873,-157 794.85,-157 794.85,-157"/>
<polygon fill="black" stroke="black" points="794.85,-153.5 784.85,-157 794.85,-160.5 794.85,-153.5"/>
</g>
<!-- DriveTypesModule -->
<g id="node6" class="node">
<title>DriveTypesModule</title>
<polygon fill="#8dd3c7" stroke="black" points="805.63,-122 802.63,-126 781.63,-126 778.63,-122 680.37,-122 680.37,-86 805.63,-86 805.63,-122"/>
<text text-anchor="middle" x="743" y="-99.8" font-family="Times,serif" font-size="14.00">DriveTypesModule</text>
</g>
<!-- DriveTypesModule&#45;&gt;AppModule -->
<g id="edge6" class="edge">
<title>DriveTypesModule&#45;&gt;AppModule</title>
<path fill="none" stroke="black" d="M743,-122.11C743,-122.11 743,-140.99 743,-140.99"/>
<polygon fill="black" stroke="black" points="739.5,-140.99 743,-150.99 746.5,-140.99 739.5,-140.99"/>
</g>
<!-- ItemsModule -->
<g id="node7" class="node">
<title>ItemsModule</title>
<polygon fill="#8dd3c7" stroke="black" points="662.15,-122 659.15,-126 638.15,-126 635.15,-122 571.85,-122 571.85,-86 662.15,-86 662.15,-122"/>
<text text-anchor="middle" x="617" y="-99.8" font-family="Times,serif" font-size="14.00">ItemsModule</text>
</g>
<!-- ItemsModule&#45;&gt;AppModule -->
<g id="edge7" class="edge">
<title>ItemsModule&#45;&gt;AppModule</title>
<path fill="none" stroke="black" d="M617,-122.24C617,-137.57 617,-157 617,-157 617,-157 691.04,-157 691.04,-157"/>
<polygon fill="black" stroke="black" points="691.04,-160.5 701.04,-157 691.04,-153.5 691.04,-160.5"/>
</g>
<!-- RentalSalesModule -->
<g id="node8" class="node">
<title>RentalSalesModule</title>
<polygon fill="#8dd3c7" stroke="black" points="553.64,-122 550.64,-126 529.64,-126 526.64,-122 428.36,-122 428.36,-86 553.64,-86 553.64,-122"/>
<text text-anchor="middle" x="491" y="-99.8" font-family="Times,serif" font-size="14.00">RentalSalesModule</text>
</g>
<!-- RentalSalesModule&#45;&gt;AppModule -->
<g id="edge8" class="edge">
<title>RentalSalesModule&#45;&gt;AppModule</title>
<path fill="none" stroke="black" d="M491,-122.02C491,-139.37 491,-163 491,-163 491,-163 691.1,-163 691.1,-163"/>
<polygon fill="black" stroke="black" points="691.1,-166.5 701.1,-163 691.1,-159.5 691.1,-166.5"/>
</g>
<!-- SubcategoriesModule -->
<g id="node9" class="node">
<title>SubcategoriesModule</title>
<polygon fill="#8dd3c7" stroke="black" points="410.08,-122 407.08,-126 386.08,-126 383.08,-122 271.92,-122 271.92,-86 410.08,-86 410.08,-122"/>
<text text-anchor="middle" x="341" y="-99.8" font-family="Times,serif" font-size="14.00">SubcategoriesModule</text>
</g>
<!-- SubcategoriesModule&#45;&gt;AppModule -->
<g id="edge9" class="edge">
<title>SubcategoriesModule&#45;&gt;AppModule</title>
<path fill="none" stroke="black" d="M341,-122.11C341,-141.34 341,-169 341,-169 341,-169 691.12,-169 691.12,-169"/>
<polygon fill="black" stroke="black" points="691.12,-172.5 701.12,-169 691.12,-165.5 691.12,-172.5"/>
</g>
<!-- UsersModule -->
<g id="node10" class="node">
<title>UsersModule</title>
<polygon fill="#8dd3c7" stroke="black" points="253.92,-122 250.92,-126 229.92,-126 226.92,-122 162.08,-122 162.08,-86 253.92,-86 253.92,-122"/>
<text text-anchor="middle" x="208" y="-99.8" font-family="Times,serif" font-size="14.00">UsersModule</text>
</g>
<!-- UsersModule&#45;&gt;AppModule -->
<g id="edge10" class="edge">
<title>UsersModule&#45;&gt;AppModule</title>
<path fill="none" stroke="black" d="M208,-122.28C208,-143.32 208,-175 208,-175 208,-175 691.02,-175 691.02,-175"/>
<polygon fill="black" stroke="black" points="691.02,-178.5 701.02,-175 691.02,-171.5 691.02,-178.5"/>
</g>
<!-- AppService -->
<g id="node12" class="node">
<title>AppService</title>
<ellipse fill="#fdb462" stroke="black" cx="81" cy="-104" rx="56.74" ry="18"/>
<text text-anchor="middle" x="81" y="-99.8" font-family="Times,serif" font-size="14.00">AppService</text>
</g>
<!-- AppService&#45;&gt;AppModule -->
<g id="edge11" class="edge">
<title>AppService&#45;&gt;AppModule</title>
<path fill="none" stroke="black" d="M81,-122.09C81,-145.13 81,-182 81,-182 81,-182 691.34,-182 691.34,-182"/>
<polygon fill="black" stroke="black" points="691.34,-185.5 701.34,-182 691.34,-178.5 691.34,-185.5"/>
</g>
</g>
</svg>
